<svg width="100" height="100" viewBox="0 0 100 100" fill="none" xmlns="http://www.w3.org/2000/svg">
<rect opacity="0.01" width="100" height="100" fill="white"/>
<path fill-rule="evenodd" clip-rule="evenodd" d="M77.6315 41.9151L86.372 31.664C86.9069 31.0729 87.1278 30.2622 86.9667 29.4815C86.8055 28.7008 86.2817 28.0438 85.5566 27.7128L60.3261 15.2407C60.0786 15.1182 59.7786 15.2197 59.6562 15.4672C59.5338 15.7148 59.6352 16.0147 59.8828 16.1372L85.1308 28.6176C85.5718 28.8148 85.8908 29.2123 85.9878 29.6855C86.0848 30.1587 85.9479 30.6496 85.6201 31.0043L76.7606 41.3947L64.8437 34.4487C64.605 34.3096 64.2988 34.3902 64.1596 34.6289C64.0205 34.8676 64.1011 35.1738 64.3398 35.313L75.8142 42.001L49.663 54.4907L23.5345 42.0114L34.5283 35.9047C34.6857 35.8185 34.7849 35.6546 34.7881 35.4751C34.7914 35.2957 34.6982 35.1282 34.544 35.0364C34.3898 34.9445 34.1982 34.9424 34.0419 35.0307L22.8077 41.2709L14.0859 31.1103C13.757 30.7551 13.6197 30.2631 13.7169 29.7888C13.8141 29.3146 14.134 28.9164 14.5761 28.7192L39.1337 16.1337C39.2938 16.0527 39.3981 15.8922 39.4073 15.7131C39.4164 15.534 39.3289 15.3637 39.178 15.2668C39.0271 15.1699 38.8358 15.1612 38.6767 15.2441L14.1376 27.8203C13.4143 28.155 12.8937 28.8145 12.7361 29.5958C12.5785 30.3772 12.8027 31.1868 13.3398 31.7758L21.8785 41.7247L13.2861 49.8208C12.7036 50.3691 12.4189 51.1632 12.5201 51.9567C12.6214 52.7503 13.0963 53.4474 13.7978 53.832L21.9443 58.3572V72.8164C21.9472 73.7785 22.4994 74.6545 23.3662 75.0722L48.5859 87.1171C49.2671 87.444 50.0599 87.444 50.7412 87.1171L75.9609 75.0722C76.8277 74.6545 77.3798 73.7785 77.3828 72.8164V58.1504L85.4228 53.7553C86.1255 53.3716 86.6019 52.6744 86.704 51.8802C86.806 51.086 86.5213 50.291 85.9384 49.7421L77.6315 41.9151ZM13.5126 51.832C13.4486 51.355 13.6196 50.8765 13.9716 50.5483L22.4203 42.5877L48.6225 55.1021L38.1152 65.001C37.6444 65.4467 36.9399 65.538 36.371 65.2271L14.2802 52.956C13.8574 52.7278 13.5713 52.3089 13.5126 51.832ZM22.9443 72.8164C22.946 73.3938 23.2775 73.9195 23.7978 74.1699L49.0175 86.2148C49.0651 86.2342 49.1137 86.2511 49.163 86.2654V55.9663L38.8007 65.7285C38.0142 66.4721 36.8377 66.6234 35.8886 66.103L22.9443 58.9127V72.8164ZM76.3828 72.8164C76.3811 73.3938 76.0496 73.9195 75.5293 74.1699L50.3095 86.2148C50.2616 86.2343 50.2127 86.2514 50.163 86.2658V56.5358L59.9208 65.7285C60.7079 66.4728 61.8853 66.6241 62.8349 66.103L76.3828 58.697L76.3828 72.8164ZM84.9433 52.8774C85.3668 52.649 85.6536 52.2298 85.7129 51.7524C85.7761 51.2757 85.6047 50.798 85.2529 50.4702L76.894 42.5937L50.3024 55.2937L60.6064 65.0009C61.079 65.4474 61.7856 65.5379 62.3554 65.225L84.9433 52.8774Z" fill="black"/>
<path d="M48.3109 37.7559C48.8961 38.3242 49.8272 38.3242 50.4124 37.7559L58.5745 29.75C58.7703 29.5561 58.7725 29.2405 58.5794 29.0439C58.3864 28.8473 58.0707 28.8439 57.8734 29.0361L49.8617 36.8945V12.5C49.8617 12.2239 49.6378 12 49.3617 12C49.0855 12 48.8617 12.2239 48.8617 12.5V36.8955L40.849 29.0361C40.7214 28.9109 40.5368 28.8632 40.3645 28.911C40.1923 28.9588 40.0587 29.0949 40.014 29.2679C39.9693 29.441 40.0203 29.6247 40.1478 29.75L48.3109 37.7559Z" fill="black"/>
</svg>
