<svg width="100" height="100" viewBox="0 0 100 100" fill="none" xmlns="http://www.w3.org/2000/svg">
<rect opacity="0.01" width="100" height="100" fill="white"/>
<path d="M55.3447 23.9219H44.0625C43.7864 23.9219 43.5625 24.1457 43.5625 24.4219C43.5625 24.698 43.7864 24.9219 44.0625 24.9219H55.3447C55.6209 24.9219 55.8447 24.698 55.8447 24.4219C55.8447 24.1457 55.6209 23.9219 55.3447 23.9219Z" fill="black"/>
<path fill-rule="evenodd" clip-rule="evenodd" d="M73.9561 64.897H83.0151C85.4993 64.8997 87.5124 66.9128 87.5151 69.397V79.5059C87.5124 81.99 85.4993 84.0031 83.0151 84.0059H62.5C60.0158 84.0032 58.0027 81.99 58 79.5059V69.397C58.0027 66.9128 60.0158 64.8997 62.5 64.897H72.9561V58.6338C72.9537 56.7018 71.3881 55.1361 69.4561 55.1338H30.7573C28.8253 55.1361 27.2597 56.7018 27.2573 58.6338V64.897H37.0151C39.4993 64.8997 41.5124 66.9128 41.5151 69.397V79.5059C41.5124 81.99 39.4993 84.0031 37.0151 84.0059H16.5C14.0158 84.0032 12.0027 81.99 12 79.5059V69.397C12.0027 66.9128 14.0158 64.8997 16.5 64.897H26.2573V58.6338C26.26 56.1496 28.2732 54.1365 30.7573 54.1338H49.204V43.7544H39.4981C37.0139 43.7517 35.0008 41.7386 34.9981 39.2544V19.5C35.0008 17.0158 37.0139 15.0027 39.4981 15H59.2524C61.7366 15.0027 63.7497 17.0158 63.7524 19.5V39.2544C63.7497 41.7386 61.7366 43.7517 59.2524 43.7544H50.2041V54.1338H69.4561C71.9402 54.1365 73.9533 56.1496 73.9561 58.6338V64.897ZM40.5151 69.397C40.5128 67.465 38.9472 65.8993 37.0151 65.897H16.5C14.568 65.8993 13.0023 67.465 13 69.397V79.5059C13.0023 81.4379 14.568 83.0035 16.5 83.0059H37.0151C38.9472 83.0035 40.5128 81.4379 40.5151 79.5059V69.397ZM39.4981 42.7544C37.566 42.7521 36.0004 41.1864 35.9981 39.2544V19.5C36.0004 17.568 37.566 16.0023 39.4981 16H59.2524C61.1845 16.0023 62.7501 17.568 62.7524 19.5V39.2544C62.7501 41.1864 61.1845 42.7521 59.2524 42.7544L39.4981 42.7544ZM83.0151 83.0059C84.9472 83.0035 86.5128 81.4379 86.5151 79.5059V69.397C86.5128 67.465 84.9472 65.8993 83.0151 65.897H62.5C60.568 65.8993 59.0023 67.465 59 69.397V79.5059C59.0023 81.4379 60.568 83.0035 62.5 83.0059H83.0151Z" fill="black"/>
<path d="M55.3447 32.9219H44.0625C43.7864 32.9219 43.5625 33.1457 43.5625 33.4219C43.5625 33.698 43.7864 33.9219 44.0625 33.9219H55.3447C55.6209 33.9219 55.8447 33.698 55.8447 33.4219C55.8447 33.1457 55.6209 32.9219 55.3447 32.9219Z" fill="black"/>
<path d="M78.3994 73.9531H67.1172C66.841 73.9531 66.6172 74.177 66.6172 74.4531C66.6172 74.7293 66.841 74.9531 67.1172 74.9531H78.3994C78.6756 74.9531 78.8994 74.7293 78.8994 74.4531C78.8994 74.177 78.6756 73.9531 78.3994 73.9531Z" fill="black"/>
<path d="M21.1152 74.9531H32.3975C32.6736 74.9531 32.8975 74.7293 32.8975 74.4531C32.8975 74.177 32.6736 73.9531 32.3975 73.9531H21.1152C20.8391 73.9531 20.6152 74.177 20.6152 74.4531C20.6152 74.7293 20.8391 74.9531 21.1152 74.9531Z" fill="black"/>
</svg>
