<svg width="100" height="100" viewBox="0 0 100 100" fill="none" xmlns="http://www.w3.org/2000/svg">
<rect opacity="0.01" width="100" height="100" fill="white"/>
<path fill-rule="evenodd" clip-rule="evenodd" d="M84.4606 13.591L84.4598 13.5941C85.223 30.4643 80.3339 43.621 69.9389 52.7148C70.2627 54.1105 71.3318 60.0445 67.2844 64.2775C65.6667 65.9699 64.1721 67.4738 62.842 68.7477C62.3763 69.199 61.7532 69.4514 61.1047 69.4514C60.9504 69.4513 60.7965 69.4374 60.6447 69.4098C59.8471 69.2694 59.1669 68.7513 58.8195 68.0197L55.5172 61.1662C52.7082 62.2367 49.7907 62.9972 46.8165 63.4343L46.5773 63.4616L34.1765 51.0934L34.2028 50.8537C34.6341 47.8657 35.391 44.9338 36.4601 42.1105C35.5836 41.7347 33.7234 40.8449 29.59 38.8677L29.5831 38.8644C28.8533 38.5158 28.3346 37.8386 28.1882 37.043C28.0418 36.2475 28.2854 35.43 28.8434 34.8444C30.1056 33.5187 31.6056 32.0197 33.3014 30.3889C37.5239 26.3296 43.4604 27.3818 44.8571 27.7016C53.9295 17.2712 67.0861 12.3435 83.9821 13.0701C84.0041 13.0738 84.0259 13.0792 84.0472 13.0861C84.2179 13.1062 84.3627 13.2207 84.4217 13.3821C84.4311 13.4113 84.4378 13.4412 84.4417 13.4715C84.4492 13.4964 84.4548 13.5218 84.4587 13.5475L84.4596 13.5845L84.4606 13.591ZM68.9382 52.3204C68.9712 52.2526 69.0193 52.1933 69.0787 52.147C79.2884 43.3339 84.1245 30.5176 83.4723 14.0587C67.006 13.4576 54.2097 18.3263 45.4263 28.5609L45.4088 28.5801L45.4078 28.5812L45.4054 28.583C45.3606 28.6338 45.3058 28.6749 45.2444 28.7037C45.2286 28.7101 45.2124 28.7155 45.1959 28.72C45.1497 28.7376 45.1011 28.748 45.0517 28.7509C45.0436 28.7513 45.0361 28.7561 45.0279 28.7561C45.0067 28.7537 44.9858 28.75 44.9651 28.7451C44.9423 28.7452 44.9196 28.7436 44.8971 28.7404C44.8321 28.7223 38.2867 26.9826 33.9947 31.1096C32.3092 32.7302 30.82 34.2189 29.568 35.5339C29.2305 35.8874 29.0831 36.3814 29.1715 36.862C29.2599 37.3427 29.5735 37.7518 30.0148 37.9621C30.0148 37.9621 37.192 41.3957 37.2868 41.4406L37.7023 41.6369L37.5421 42.0681C36.4723 44.8672 35.6966 47.77 35.2277 50.7297L46.9381 62.4093C49.8963 61.932 52.7969 61.1481 55.5929 60.0705C56.048 59.964 56.0485 59.965 59.6738 67.4895L59.7203 67.5861C59.9321 68.0267 60.3423 68.339 60.8233 68.426C61.3043 68.513 61.7979 68.3641 62.1505 68.0256C63.4699 66.7619 64.9542 65.2682 66.5617 63.5861C70.6774 59.2819 68.9181 52.7428 68.9 52.6769C68.8916 52.6359 68.8885 52.594 68.8909 52.5522C68.8909 52.545 68.8899 52.5379 68.889 52.5308C68.8877 52.5214 68.8864 52.5119 68.8873 52.5024C68.8926 52.4475 68.9072 52.3939 68.9304 52.3439C68.9338 52.3362 68.9345 52.3279 68.9382 52.3204Z" fill="black"/>
<path fill-rule="evenodd" clip-rule="evenodd" d="M53.4453 36.5938C53.4454 32.2875 56.9364 28.7967 61.2427 28.7969C65.5468 28.8021 69.0346 32.2901 69.0396 36.5942C69.0394 40.9005 65.5484 44.3912 61.2422 44.3911C56.936 44.391 53.4452 40.9 53.4453 36.5938ZM54.9628 39.1953C56.0149 41.7352 58.4935 43.3912 61.2427 43.3911C64.9947 43.3868 68.0352 40.3463 68.0396 36.5942C68.0396 33.845 66.3836 31.3664 63.8437 30.3143C61.3038 29.2622 58.3801 29.8437 56.4361 31.7877C54.4921 33.7317 53.9106 36.6553 54.9628 39.1953Z" fill="black"/>
<path d="M38.8194 65.771C38.5824 65.6292 38.2752 65.7064 38.1334 65.9434C37.9915 66.1804 38.0687 66.4876 38.3057 66.6294C40.1356 67.8125 41.2371 69.8459 41.2286 72.0249C41.1868 74.2296 40.2946 76.3328 38.7383 77.8951C37.1538 79.469 35.186 80.6022 33.0293 81.1827C32.0767 81.4595 31.0752 81.6577 30.1075 81.8497L29.2999 82.0118C25.7407 82.7416 22.2483 83.7661 18.8589 85.0748C18.7276 85.1256 18.5948 85.1832 18.4629 85.2467C18.0274 85.4596 17.5164 85.4519 17.0874 85.2261C16.7175 85.0355 16.4645 84.6758 16.4101 84.2632C16.1455 82.2828 16.2198 80.2719 16.6299 78.3164C17.28 75.3683 18.4382 72.5559 20.0527 70.0049C20.8096 68.7652 20.8389 67.7286 20.1338 67.1617C19.8023 66.9292 19.4105 66.7977 19.0058 66.7832L15.77 66.4131C15.6798 66.4053 15.5904 66.3906 15.5024 66.3691C15.4995 66.3603 15.4761 66.2749 15.5859 65.9873C16.6677 62.7358 18.9339 60.0106 21.9336 58.354C25.0727 56.8183 29.0049 57.3657 31.0776 59.6289C31.2643 59.832 31.5803 59.8456 31.7837 59.6592C31.9871 59.4727 32.0011 59.1568 31.8149 58.9531C29.4155 56.334 25.0756 55.7036 21.4941 57.4556C18.2659 59.2227 15.8225 62.1419 14.6514 65.6309C14.4276 66.0718 14.4603 66.5994 14.7368 67.0093C14.9811 67.2543 15.31 67.3964 15.6558 67.4063L18.8922 67.7764C19.1071 67.7811 19.3178 67.8373 19.5064 67.9405C19.8204 68.1929 19.5538 68.9034 19.1993 69.4835C17.524 72.134 16.3228 75.0559 15.6495 78.1183C15.2173 80.1846 15.1397 82.3095 15.42 84.4019C15.5199 85.1299 15.9647 85.7651 16.6148 86.1079C16.9764 86.3003 17.3799 86.4006 17.7896 86.3999C18.1728 86.4001 18.5511 86.3139 18.8965 86.1479C19.0039 86.0962 19.1114 86.0495 19.2188 86.0078C22.5564 84.7192 25.9953 83.7102 29.5 82.9912L30.3018 82.8306C31.291 82.6348 32.314 82.4316 33.3086 82.1426C35.6335 81.5133 37.7538 80.2878 39.4595 78.5874C41.1958 76.8367 42.188 74.4825 42.2285 72.0171C42.2307 69.4902 40.9459 67.1361 38.8194 65.771Z" fill="black"/>
</svg>
