<svg width="100" height="100" viewBox="0 0 100 100" fill="none" xmlns="http://www.w3.org/2000/svg">
<rect opacity="0.01" width="100" height="100" fill="white"/>
<path d="M20.1318 38.5489C20.1745 38.5605 20.2186 38.5663 20.2629 38.5662C20.4922 38.566 20.6927 38.4117 20.7517 38.1902L26.7689 15.6455C27.2784 13.756 29.2186 12.6332 31.1107 13.1329L49.7391 18.105C51.6315 18.6104 52.7561 20.5539 52.2512 22.4463L50.9523 27.3136C50.9177 27.4434 50.936 27.5816 51.0033 27.6979C51.0705 27.8142 51.1813 27.899 51.3111 27.9336C51.5307 27.992 51.7619 27.8934 51.872 27.6945C53.8203 26.1932 56.5124 26.1122 58.5475 27.4937C60.5826 28.8753 61.5008 31.4072 60.8245 33.7721C60.1482 36.137 58.03 37.8006 55.5722 37.8972C53.1601 37.9886 50.951 36.5535 50.0541 34.3125C50.0102 34.1389 49.8765 34.0022 49.704 33.9542C49.434 33.8845 49.1581 34.0442 49.084 34.3129L46.234 44.991C46.1993 45.1208 46.2176 45.259 46.2849 45.3753C46.3522 45.4916 46.4629 45.5764 46.5927 45.611C46.6355 45.6226 46.6796 45.6284 46.7238 45.6283C46.9531 45.6281 47.1536 45.4738 47.2127 45.2523L49.7246 35.8411C50.9574 37.7519 53.0736 38.9087 55.3476 38.915C55.4356 38.915 55.5237 38.913 55.6118 38.9095C58.3662 38.8132 60.7818 37.0427 61.7028 34.445C62.6239 31.8473 61.8632 28.9506 59.7846 27.1407C57.706 25.3308 54.7322 24.9756 52.2858 26.2452L53.2298 22.7076C53.5418 21.5392 53.3769 20.2948 52.7712 19.248C52.1655 18.2013 51.1688 17.4381 50.0004 17.1264L31.372 12.1542C28.9391 11.5078 26.4421 12.9528 25.7902 15.3842L19.773 37.9289C19.7383 38.0587 19.7567 38.1969 19.8239 38.3132C19.8912 38.4295 20.002 38.5143 20.1318 38.5489Z" fill="black"/>
<path d="M84.2024 25.8654L61.5815 20.1407C61.4058 20.0959 61.2196 20.1484 61.0931 20.2783C60.9666 20.4083 60.9192 20.5958 60.9688 20.7702C61.0183 20.9446 61.1572 21.0793 61.3331 21.1234L83.954 26.8481C84.8658 27.079 85.6486 27.6626 86.1301 28.4706C86.6116 29.2786 86.7524 30.2448 86.5214 31.1567L81.7912 49.8479C81.3101 51.7466 79.3814 52.8961 77.4825 52.4159L72.599 51.1799C72.3277 51.1118 72.0525 51.276 71.9835 51.5471C71.9299 51.7677 72.0315 51.9968 72.231 52.1051C73.7485 54.0271 73.8671 56.7042 72.5254 58.7528C71.1836 60.8015 68.6823 61.7627 66.314 61.1397C63.9456 60.5167 62.2409 58.4492 62.0809 56.0055C61.9208 53.5619 63.3413 51.2896 65.6081 50.363C65.6252 50.3531 65.6417 50.3422 65.6574 50.3302C65.7957 50.2756 65.9011 50.1603 65.9431 50.0177C66.0113 49.7464 65.8471 49.471 65.5759 49.4022L54.8617 46.6907C54.6858 46.6454 54.4992 46.6977 54.3724 46.8277C54.2457 46.9577 54.1982 47.1457 54.2479 47.3203C54.2977 47.495 54.4371 47.6296 54.6133 47.6734L64.0559 50.063C61.5942 51.6976 60.4933 54.7514 61.3458 57.5807C62.1983 60.41 64.803 62.3473 67.758 62.3499C67.8777 62.3499 67.9979 62.3464 68.1182 62.3405C70.4093 62.2289 72.4834 60.9508 73.6129 58.9543C74.7425 56.9579 74.7698 54.5218 73.6854 52.5004L77.2342 53.3986C78.4068 53.6955 79.6492 53.5144 80.6882 52.8951C81.7271 52.2757 82.4774 51.269 82.7739 50.0963L87.5041 31.4051C88.119 28.964 86.642 26.4859 84.2024 25.8654Z" fill="black"/>
<path d="M79.944 60.8523C79.8138 60.8186 79.6755 60.8382 79.5599 60.9069C79.4442 60.9755 79.3607 61.0875 79.328 61.218L73.5696 83.8304C73.3376 84.742 72.7529 85.5241 71.9442 86.0046C71.1355 86.485 70.1691 86.6246 69.2575 86.3925L50.5732 81.6346C48.6763 81.1491 47.5303 79.22 48.0112 77.3219L49.2541 72.4403C49.2874 72.3102 49.2675 72.1721 49.199 72.0565C49.1304 71.941 49.0187 71.8574 48.8884 71.8243C48.6678 71.7681 48.4373 71.8695 48.3296 72.0701C46.6579 73.3914 44.3884 73.6687 42.4478 72.7887C40.5072 71.9087 39.2204 70.0188 39.1128 67.8907C38.972 65.1197 40.8475 62.65 43.5547 62.0419C46.2618 61.4337 49.0135 62.8639 50.0713 65.429C50.1273 65.6485 50.3253 65.802 50.5519 65.8012C50.7833 65.801 50.9851 65.644 51.0423 65.4197L53.7695 54.71C53.8387 54.4389 53.675 54.1631 53.4039 54.094C53.1328 54.0248 52.857 54.1885 52.7879 54.4596L50.3839 63.8998C48.9488 61.7354 46.3929 60.5945 43.8235 60.9713C41.2541 61.3481 39.1334 63.1748 38.3802 65.6601C37.627 68.1453 38.3768 70.842 40.3048 72.5818C41.5336 73.6984 43.1352 74.3158 44.7955 74.3131C44.9113 74.3131 45.0276 74.3102 45.1444 74.3042C46.1198 74.2517 47.0718 73.9853 47.9328 73.524L47.0295 77.0716C46.7308 78.2436 46.91 79.4863 47.5277 80.5261C48.1453 81.566 49.1508 82.3178 50.3228 82.6163L69.0072 87.3742C69.3774 87.4688 69.7581 87.5168 70.1402 87.5172C72.222 87.5111 74.0361 86.0979 74.5513 84.0809L80.3097 61.4683C80.343 61.3381 80.3231 61.2001 80.2545 61.0845C80.186 60.969 80.0742 60.8854 79.944 60.8523Z" fill="black"/>
<path d="M38.2235 78.8383L15.6585 72.8958C14.7489 72.6563 13.9716 72.0653 13.4978 71.2527C13.024 70.4401 12.8925 69.4725 13.1321 68.5629L18.0419 49.9182C18.5427 48.0255 20.4809 46.8952 22.3748 47.3913L27.2461 48.6743C27.4904 48.7414 27.7464 48.6157 27.8427 48.3813C27.939 48.1469 27.8453 47.8775 27.6243 47.7535C26.3161 46.0711 26.057 43.799 26.9527 41.8653C27.8484 39.9315 29.7491 38.6599 31.8783 38.5697C34.6521 38.4514 37.1075 40.3494 37.6919 43.0635C38.2763 45.7777 36.8196 48.5179 34.2429 49.5517C34.0721 49.597 33.9381 49.7295 33.8911 49.8999C33.8568 50.0298 33.8756 50.1681 33.9432 50.2841C34.0109 50.4002 34.1219 50.4847 34.2519 50.5189L44.9394 53.3333C45.2094 53.4034 45.4854 53.2419 45.5565 52.9721C45.6276 52.7023 45.4672 52.4257 45.1976 52.3536L35.7782 49.8731C38.8276 47.9013 39.7592 43.8638 37.882 40.7553C36.0047 37.6467 31.9977 36.5916 28.833 38.3725C25.6683 40.1534 24.4906 44.1261 26.1735 47.344L22.6331 46.4116C20.1978 45.7708 17.7041 47.2249 17.0623 49.6599L12.1524 68.3046C11.8443 69.4741 12.0134 70.718 12.6225 71.7627C13.2316 72.8075 14.2308 73.5675 15.4002 73.8755L37.9652 79.8179C38.1405 79.8649 38.3275 79.8144 38.4554 79.6858C38.5833 79.5571 38.6327 79.3699 38.5848 79.1949C38.5369 79.0199 38.3991 78.8839 38.2235 78.8383Z" fill="black"/>
</svg>
