<svg width="60" height="60" viewBox="0 0 60 60" fill="none" xmlns="http://www.w3.org/2000/svg">
<path fill-rule="evenodd" clip-rule="evenodd" d="M25.8976 41.4531C36.464 41.4531 42.2424 32.6052 42.2424 24.9329C42.2424 24.6815 42.2374 24.4313 42.2259 24.1823C43.3475 23.3628 44.3226 22.3402 45.0918 21.176C44.0624 21.6382 42.9547 21.9496 41.7927 22.0901C42.9787 21.3714 43.8894 20.2339 44.3188 18.8782C43.2086 19.5433 41.9797 20.0271 40.6712 20.2876C39.6228 19.1589 38.13 18.4531 36.4779 18.4531C33.3053 18.4531 30.7324 21.0535 30.7324 24.2589C30.7324 24.7147 30.7829 25.1577 30.8815 25.5828C26.1072 25.3402 21.8735 23.0296 19.0406 19.5164C18.5468 20.3743 18.2625 21.3714 18.2625 22.4348C18.2625 24.4492 19.2768 26.2275 20.8189 27.2678C19.8767 27.2385 18.9913 26.9768 18.2171 26.5415C18.2158 26.5657 18.2158 26.59 18.2158 26.6154C18.2158 29.4278 20.1963 31.7754 22.8246 32.3078C22.3421 32.4405 21.8344 32.512 21.3103 32.512C20.9402 32.512 20.5803 32.475 20.2304 32.4073C20.9616 34.7141 23.0823 36.3928 25.597 36.4401C23.6305 37.9974 21.1537 38.9256 18.4621 38.9256C17.9987 38.9256 17.5414 38.8987 17.0918 38.8451C19.6342 40.4919 22.6528 41.4531 25.8976 41.4531Z" fill="white"/>
</svg>
