<svg width="60" height="60" viewBox="0 0 60 60" fill="none" xmlns="http://www.w3.org/2000/svg">
<path fill-rule="evenodd" clip-rule="evenodd" d="M27.6528 41.7266H33.0365V33.1351C33.0365 30.87 33.4669 28.6764 36.2705 28.6764C39.0335 28.6764 39.0704 31.2668 39.0704 33.2807V41.7266H44.4551V32.2003C44.4551 27.5248 43.448 23.9276 37.9913 23.9276C35.3699 23.9276 33.6122 25.367 32.893 26.7325H32.8206V24.3594H27.6528V41.7266ZM21.5799 15.7266C23.3024 15.7266 24.7026 17.1289 24.7026 18.8552C24.7026 20.5828 23.3024 21.9854 21.5799 21.9854C19.8527 21.9854 18.4551 20.5828 18.4551 18.8552C18.4551 17.1289 19.8527 15.7266 21.5799 15.7266ZM18.8842 41.7266H24.2727V24.3594H18.8842V41.7266Z" fill="white"/>
</svg>
