<svg width="60" height="60" viewBox="0 0 60 60" fill="none" xmlns="http://www.w3.org/2000/svg">
<path fill-rule="evenodd" clip-rule="evenodd" d="M39.8927 23.5888V27.1915H36.1943V29.714H39.8927V33.3185H42.6658V29.714H46.3633V27.1014H42.6658V23.5888H39.8927ZM23.6238 26.3811V30.4351H29.17C28.8002 32.7774 26.6742 34.4892 23.6238 34.4892C20.296 34.4892 17.5229 31.6964 17.5229 28.4531C17.5229 25.2099 20.2036 22.4171 23.6238 22.4171C25.1952 22.4171 26.4893 22.8675 27.5985 23.9486L30.5565 21.0657C28.7078 19.4441 26.3969 18.4531 23.6238 18.4531C17.9851 18.4531 13.3633 22.9576 13.3633 28.4531C13.3633 33.9486 17.9851 38.4531 23.6238 38.4531C29.6321 38.4531 33.5145 34.309 33.5145 28.6333C33.5145 27.9126 33.422 27.1018 33.3296 26.3811H23.6238Z" fill="white"/>
</svg>
